#Comment line ignore any data following # character 
#Hierarchical Translation and Rotation (.htr) file 
[Header]	
#Header keywords are followed by a single value 
FileType HTR		#Single word string
DataType HTRS		#Translation followed by rotation and scale data
FileVersion 1		#integer
NumSegments 84		#integer
NumFrames 2		#integer
DataFrameRate 30		#integer, data frame rate in this file
EulerRotationOrder ZYX
CalibrationUnits mm
RotationUnits Degrees
GlobalAxisofGravity Y
BoneLengthAxis Y
ScaleFactor 1.00
[SegmentNames&Hierarchy]
#CHILD	PARENT
MASTER GLOBAL
root MASTER
chest root
L_mid_tent01 root
R_mid_tent01 root
spine01 root
Bip01_Neck chest
L_humerus chest
R_humerus chest
weapon_bone chest
Bip01_Head Bip01_Neck
eye_left_bone Bip01_Head
eye_right_bone Bip01_Head
L_forearm L_humerus
L_front_hand L_forearm
L_weapon_bone L_forearm
L_front_hand01_01 L_front_hand
L_front_hand02_01 L_front_hand
L_front_hand03_01 L_front_hand
L_front_hand01_02 L_front_hand01_01
L_front_hand02_02 L_front_hand02_01
L_front_hand03_02 L_front_hand03_01
R_forearm R_humerus
R_front_hand R_forearm
R_weapon_bone R_forearm
R_front_hand01_01 R_front_hand
R_front_hand02_01 R_front_hand
R_front_hand03_01 R_front_hand
R_front_hand01_02 R_front_hand01_01
R_front_hand02_02 R_front_hand02_01
R_front_hand03_02 R_front_hand03_01
null_rope01_connect L_mid_tent01
Rope1_Seg01 null_rope01_connect
Rope1_Seg02 Rope1_Seg01
Rope1_Seg03 Rope1_Seg02
Rope1_Seg04 Rope1_Seg03
Rope1_Seg05 Rope1_Seg04
Rope1_Seg06 Rope1_Seg05
Rope1_Seg07 Rope1_Seg06
Rope1_Seg09 Rope1_Seg07
L_mid_hand01 Rope1_Seg09
L_mid_hand02 Rope1_Seg09
L_mid_hand03 Rope1_Seg09
null_rope02_connect R_mid_tent01
Rope2_Seg01 null_rope02_connect
Rope2_Seg02 Rope2_Seg01
Rope2_Seg03 Rope2_Seg02
Rope2_Seg04 Rope2_Seg03
Rope2_Seg05 Rope2_Seg04
Rope2_Seg06 Rope2_Seg05
Rope2_Seg07 Rope2_Seg06
Rope2_Seg09 Rope2_Seg07
R_mid_hand01 Rope2_Seg09
R_mid_hand02 Rope2_Seg09
R_mid_hand03 Rope2_Seg09
spine02 spine01
spine03 spine02
pelvis spine03
null_rope03_connect pelvis
null_rope04_connect pelvis
Rope3_Seg01 null_rope03_connect
Rope3_Seg02 Rope3_Seg01
Rope3_Seg03 Rope3_Seg02
Rope3_Seg04 Rope3_Seg03
Rope3_Seg05 Rope3_Seg04
Rope3_Seg06 Rope3_Seg05
Rope3_Seg07 Rope3_Seg06
Rope3_Seg08 Rope3_Seg07
Rope3_Seg09 Rope3_Seg08
R_rear_hand01 Rope3_Seg09
R_rear_hand02 Rope3_Seg09
R_rear_hand03 Rope3_Seg09
Rope4_Seg01 null_rope04_connect
Rope4_Seg02 Rope4_Seg01
Rope4_Seg03 Rope4_Seg02
Rope4_Seg04 Rope4_Seg03
Rope4_Seg05 Rope4_Seg04
Rope4_Seg06 Rope4_Seg05
Rope4_Seg07 Rope4_Seg06
Rope4_Seg08 Rope4_Seg07
Rope4_Seg09 Rope4_Seg08
L_rear_hand01 Rope4_Seg09
L_rear_hand02 Rope4_Seg09
L_rear_hand03 Rope4_Seg09
[BasePosition]
#SegmentName Tx, Ty, Tz, Rx, Ry, Rz, BoneLength
MASTER 0.000000 0.000000 0.000000 -90.000000 0.000000 0.000000 10.000000 
root 0.000000 0.000000 0.000000 0.000000 0.000000 0.000000 10.000000 
chest 0.000000 0.000000 0.000000 0.000000 0.000000 0.000000 10.000000 
L_mid_tent01 0.000000 0.000000 0.000000 0.000000 0.000000 0.000000 10.000000 
R_mid_tent01 0.000000 0.000000 0.000000 0.000000 0.000000 0.000000 10.000000 
spine01 0.000000 0.000000 0.000000 0.000000 0.000000 0.000000 10.000000 
Bip01_Neck 0.000000 0.000000 0.000000 0.000000 0.000000 0.000000 10.000000 
L_humerus 0.000000 0.000000 0.000000 0.000000 0.000000 0.000000 10.000000 
R_humerus 0.000000 0.000000 0.000000 0.000000 0.000000 0.000000 10.000000 
weapon_bone 0.000000 0.000000 0.000000 0.000000 0.000000 0.000000 10.000000 
Bip01_Head 0.000000 0.000000 0.000000 0.000000 0.000000 0.000000 10.000000 
eye_left_bone 0.000000 0.000000 0.000000 0.000000 0.000000 0.000000 10.000000 
eye_right_bone 0.000000 0.000000 0.000000 0.000000 0.000000 0.000000 10.000000 
L_forearm 0.000000 0.000000 0.000000 0.000000 0.000000 0.000000 10.000000 
L_front_hand 0.000000 0.000000 0.000000 0.000000 0.000000 0.000000 10.000000 
L_weapon_bone 0.000000 0.000000 0.000000 0.000000 0.000000 0.000000 10.000000 
L_front_hand01_01 0.000000 0.000000 0.000000 0.000000 0.000000 0.000000 10.000000 
L_front_hand02_01 0.000000 0.000000 0.000000 0.000000 0.000000 0.000000 10.000000 
L_front_hand03_01 0.000000 0.000000 0.000000 0.000000 0.000000 0.000000 10.000000 
L_front_hand01_02 0.000000 0.000000 0.000000 0.000000 0.000000 0.000000 10.000000 
L_front_hand02_02 0.000000 0.000000 0.000000 0.000000 0.000000 0.000000 10.000000 
L_front_hand03_02 0.000000 0.000000 0.000000 0.000000 0.000000 0.000000 10.000000 
R_forearm 0.000000 0.000000 0.000000 0.000000 0.000000 0.000000 10.000000 
R_front_hand 0.000000 0.000000 0.000000 0.000000 0.000000 0.000000 10.000000 
R_weapon_bone 0.000000 0.000000 0.000000 0.000000 0.000000 0.000000 10.000000 
R_front_hand01_01 0.000000 0.000000 0.000000 0.000000 0.000000 0.000000 10.000000 
R_front_hand02_01 0.000000 0.000000 0.000000 0.000000 0.000000 0.000000 10.000000 
R_front_hand03_01 0.000000 0.000000 0.000000 0.000000 0.000000 0.000000 10.000000 
R_front_hand01_02 0.000000 0.000000 0.000000 0.000000 0.000000 0.000000 10.000000 
R_front_hand02_02 0.000000 0.000000 0.000000 0.000000 0.000000 0.000000 10.000000 
R_front_hand03_02 0.000000 0.000000 0.000000 0.000000 0.000000 0.000000 10.000000 
null_rope01_connect 0.000000 0.000000 0.000000 0.000000 0.000000 0.000000 10.000000 
Rope1_Seg01 0.000000 0.000000 0.000000 0.000000 0.000000 0.000000 10.000000 
Rope1_Seg02 0.000000 0.000000 0.000000 0.000000 0.000000 0.000000 10.000000 
Rope1_Seg03 0.000000 0.000000 0.000000 0.000000 0.000000 0.000000 10.000000 
Rope1_Seg04 0.000000 0.000000 0.000000 0.000000 0.000000 0.000000 10.000000 
Rope1_Seg05 0.000000 0.000000 0.000000 0.000000 0.000000 0.000000 10.000000 
Rope1_Seg06 0.000000 0.000000 0.000000 0.000000 0.000000 0.000000 10.000000 
Rope1_Seg07 0.000000 0.000000 0.000000 0.000000 0.000000 0.000000 10.000000 
Rope1_Seg09 0.000000 0.000000 0.000000 0.000000 0.000000 0.000000 10.000000 
L_mid_hand01 0.000000 0.000000 0.000000 0.000000 0.000000 0.000000 10.000000 
L_mid_hand02 0.000000 0.000000 0.000000 0.000000 0.000000 0.000000 10.000000 
L_mid_hand03 0.000000 0.000000 0.000000 0.000000 0.000000 0.000000 10.000000 
null_rope02_connect 0.000000 0.000000 0.000000 0.000000 0.000000 0.000000 10.000000 
Rope2_Seg01 0.000000 0.000000 0.000000 0.000000 0.000000 0.000000 10.000000 
Rope2_Seg02 0.000000 0.000000 0.000000 0.000000 0.000000 0.000000 10.000000 
Rope2_Seg03 0.000000 0.000000 0.000000 0.000000 0.000000 0.000000 10.000000 
Rope2_Seg04 0.000000 0.000000 0.000000 0.000000 0.000000 0.000000 10.000000 
Rope2_Seg05 0.000000 0.000000 0.000000 0.000000 0.000000 0.000000 10.000000 
Rope2_Seg06 0.000000 0.000000 0.000000 0.000000 0.000000 0.000000 10.000000 
Rope2_Seg07 0.000000 0.000000 0.000000 0.000000 0.000000 0.000000 10.000000 
Rope2_Seg09 0.000000 0.000000 0.000000 0.000000 0.000000 0.000000 10.000000 
R_mid_hand01 0.000000 0.000000 0.000000 0.000000 0.000000 0.000000 10.000000 
R_mid_hand02 0.000000 0.000000 0.000000 0.000000 0.000000 0.000000 10.000000 
R_mid_hand03 0.000000 0.000000 0.000000 0.000000 0.000000 0.000000 10.000000 
spine02 0.000000 0.000000 0.000000 0.000000 0.000000 0.000000 10.000000 
spine03 0.000000 0.000000 0.000000 0.000000 0.000000 0.000000 10.000000 
pelvis 0.000000 0.000000 0.000000 0.000000 0.000000 0.000000 10.000000 
null_rope03_connect 0.000000 0.000000 0.000000 0.000000 0.000000 0.000000 10.000000 
null_rope04_connect 0.000000 0.000000 0.000000 0.000000 0.000000 0.000000 10.000000 
Rope3_Seg01 0.000000 0.000000 0.000000 0.000000 0.000000 0.000000 10.000000 
Rope3_Seg02 0.000000 0.000000 0.000000 0.000000 0.000000 0.000000 10.000000 
Rope3_Seg03 0.000000 0.000000 0.000000 0.000000 0.000000 0.000000 10.000000 
Rope3_Seg04 0.000000 0.000000 0.000000 0.000000 0.000000 0.000000 10.000000 
Rope3_Seg05 0.000000 0.000000 0.000000 0.000000 0.000000 0.000000 10.000000 
Rope3_Seg06 0.000000 0.000000 0.000000 0.000000 0.000000 0.000000 10.000000 
Rope3_Seg07 0.000000 0.000000 0.000000 0.000000 0.000000 0.000000 10.000000 
Rope3_Seg08 0.000000 0.000000 0.000000 0.000000 0.000000 0.000000 10.000000 
Rope3_Seg09 0.000000 0.000000 0.000000 0.000000 0.000000 0.000000 10.000000 
R_rear_hand01 0.000000 0.000000 0.000000 0.000000 0.000000 0.000000 10.000000 
R_rear_hand02 0.000000 0.000000 0.000000 0.000000 0.000000 0.000000 10.000000 
R_rear_hand03 0.000000 0.000000 0.000000 0.000000 0.000000 0.000000 10.000000 
Rope4_Seg01 0.000000 0.000000 0.000000 0.000000 0.000000 0.000000 10.000000 
Rope4_Seg02 0.000000 0.000000 0.000000 0.000000 0.000000 0.000000 10.000000 
Rope4_Seg03 0.000000 0.000000 0.000000 0.000000 0.000000 0.000000 10.000000 
Rope4_Seg04 0.000000 0.000000 0.000000 0.000000 0.000000 0.000000 10.000000 
Rope4_Seg05 0.000000 0.000000 0.000000 0.000000 0.000000 0.000000 10.000000 
Rope4_Seg06 0.000000 0.000000 0.000000 0.000000 0.000000 0.000000 10.000000 
Rope4_Seg07 0.000000 0.000000 0.000000 0.000000 0.000000 0.000000 10.000000 
Rope4_Seg08 0.000000 0.000000 0.000000 0.000000 0.000000 0.000000 10.000000 
Rope4_Seg09 0.000000 0.000000 0.000000 0.000000 0.000000 0.000000 10.000000 
L_rear_hand01 0.000000 0.000000 0.000000 0.000000 0.000000 0.000000 10.000000 
L_rear_hand02 0.000000 0.000000 0.000000 0.000000 0.000000 0.000000 10.000000 
L_rear_hand03 0.000000 0.000000 0.000000 0.000000 0.000000 0.000000 10.000000 
#Beginning of Data. Separated by tabs
#Fr	Tx	Ty	Tz	Rx	Ry	Rz	SF
[MASTER]
3 -0.000035 250.000000 0.000000 0.001660 0.001660 0.001660 250.000000
4 -0.000054 375.000244 0.000000 0.001660 0.001660 0.001660 375.000244
[root]
3 -12.100192 -14.193286 1457.687134 -91.728889 -11.584497 -89.471619 1457.806396
4 -10.945943 -32.491413 1466.385132 -91.728889 -11.584497 -89.471619 1466.785889
[chest]
3 -84.512650 -34.090519 0.000000 -2.177095 -0.047257 167.698212 91.129311
4 -84.512650 -34.090519 0.000000 -2.180839 -0.061981 167.469604 91.129311
[L_mid_tent01]
3 27.299067 22.179258 -249.918686 -20.609898 11.407804 13.220246 252.381683
4 27.299068 22.179258 -249.918686 -20.586628 11.080887 13.343992 252.381683
[R_mid_tent01]
3 23.228794 24.509907 226.238495 -165.283630 -16.848616 24.362400 228.744751
4 23.228794 24.509907 226.238495 -165.331390 -16.232874 24.531813 228.744751
[spine01]
3 -0.361383 -0.195265 0.000000 0.001949 0.001307 22.303839 0.410763
4 -0.361383 -0.195265 0.000000 0.001951 0.001306 22.404675 0.410763
[Bip01_Neck]
3 165.484543 71.581718 0.000119 176.643677 -1.657967 43.431911 180.302734
4 165.484543 71.581718 0.000119 176.643677 -1.657967 43.431911 180.302734
[L_humerus]
3 -13.983130 -135.272980 -120.471481 -10.099929 76.166344 79.967964 181.680161
4 -13.983130 -135.272980 -120.471481 -16.354301 81.020142 73.745407 181.680161
[R_humerus]
3 -13.983309 -135.273102 125.287651 39.903919 -75.564796 55.905296 184.909012
4 -13.983309 -135.273102 125.287651 54.221066 -78.941391 41.674328 184.909012
[weapon_bone]
3 235.964890 -300.705902 0.000000 0.000000 -89.951546 -128.212341 382.234833
4 235.964890 -300.705902 0.000000 0.000000 -89.951546 -128.212341 382.234833
[Bip01_Head]
3 213.441284 185.723251 11.674447 4.965891 3.028566 -43.896420 283.172394
4 213.439865 185.727203 11.623175 4.964685 3.337349 -43.891834 283.171814
[eye_left_bone]
3 -24.626970 125.451866 -64.772606 0.000000 -90.000000 -99.840431 143.318359
4 -24.626970 125.451866 -64.772606 0.000000 -90.000000 -99.840431 143.318359
[eye_right_bone]
3 -24.626970 125.451866 64.327362 0.000000 -89.965736 80.156380 143.117676
4 -24.626970 125.451866 64.327362 0.000000 -89.965736 80.156380 143.117676
[L_forearm]
3 322.776093 0.000000 -0.000119 0.000407 -0.002312 -109.964386 322.776093
4 322.776093 0.000000 -0.000119 0.000411 -0.002311 -110.193703 322.776093
[L_front_hand]
3 241.149185 -0.042021 -3.300071 -178.667953 -1.835447 -27.422350 241.171753
4 241.149185 -0.042021 -3.300071 -178.667953 -1.835447 -27.422350 241.171753
[L_weapon_bone]
3 156.183838 0.000000 0.000000 0.000014 0.000007 0.000001 156.183838
4 156.183838 0.000000 0.000000 0.000014 0.000007 0.000001 156.183838
[L_front_hand01_01]
3 86.095154 20.947098 -0.655860 -0.366594 -0.477154 75.385574 88.609184
4 86.095154 20.947098 -0.655860 -0.365371 -0.478091 75.092094 88.609184
[L_front_hand02_01]
3 86.935165 -11.437475 24.513514 154.399796 -59.883835 -61.369587 91.046425
4 86.935165 -11.437475 24.513514 153.946487 -59.758568 -60.843468 91.046425
[L_front_hand03_01]
3 86.637497 -14.123976 -20.424902 -153.913849 58.118122 -62.702866 90.126129
4 86.637497 -14.123976 -20.424902 -153.504349 57.989803 -62.217342 90.126129
[L_front_hand01_02]
3 71.020905 -0.000179 0.000030 0.000320 -0.002325 -105.686226 71.020905
4 71.020905 -0.000179 0.000030 0.000320 -0.002325 -105.648979 71.020905
[L_front_hand02_02]
3 71.020927 -0.000119 0.000060 0.000320 -0.002325 -105.686226 71.020927
4 71.020927 -0.000119 0.000060 0.000320 -0.002325 -105.648979 71.020927
[L_front_hand03_02]
3 71.020905 -0.000060 0.000060 0.000320 -0.002325 -105.686226 71.020905
4 71.020905 -0.000060 0.000060 0.000320 -0.002325 -105.648979 71.020905
[R_forearm]
3 322.776428 -0.000060 0.000030 0.201788 0.066125 -108.611824 322.776428
4 322.776428 -0.000060 0.000030 0.201651 0.066543 -108.849144 322.776428
[R_front_hand]
3 238.847015 -0.006795 2.210259 -2.635298 -10.645461 -26.312506 238.857239
4 238.847015 -0.006795 2.210259 -2.635298 -10.645461 -26.312506 238.857239
[R_weapon_bone]
3 155.664093 0.002503 -0.000030 0.003487 0.001180 -90.988930 155.664078
4 155.664093 0.002503 -0.000030 0.003487 0.001180 -90.988930 155.664078
[R_front_hand01_01]
3 87.624611 14.231146 22.918642 -154.633499 -59.950619 61.746044 91.683487
4 87.624611 14.231146 22.918642 -154.238968 -59.839840 61.284889 91.683487
[R_front_hand02_01]
3 89.356956 14.367283 -19.491137 154.602661 58.302849 63.744389 92.579636
4 89.356956 14.367283 -19.491137 154.231567 58.196690 63.311184 92.579636
[R_front_hand03_01]
3 87.286232 -22.307278 -0.143439 0.162155 -0.423168 -75.767921 90.091743
4 87.286232 -22.307278 -0.143439 0.161230 -0.423521 -75.517479 90.091743
[R_front_hand01_02]
3 71.020905 0.000060 0.000119 0.002323 -0.000334 106.381714 71.020905
4 71.020905 0.000060 0.000119 0.002323 -0.000334 106.381714 71.020905
[R_front_hand02_02]
3 71.020844 -0.000030 -0.000119 0.002323 -0.000334 106.381714 71.020836
4 71.020844 -0.000030 -0.000119 0.002323 -0.000334 106.381714 71.020836
[R_front_hand03_02]
3 71.020905 0.000000 0.000030 0.002323 -0.000334 106.381714 71.020905
4 71.020905 0.000000 0.000030 0.002323 -0.000334 106.381714 71.020905
[null_rope01_connect]
3 328.732483 0.000000 -0.000238 -155.853699 -65.107277 -117.668564 328.732483
4 328.732483 0.000000 -0.000238 -156.593597 -65.266525 -116.996483 328.732483
[Rope1_Seg01]
3 -0.000002 -0.000051 0.000145 95.288643 2.937607 -87.776321 0.000154
4 -0.000003 -0.000058 0.000141 97.781525 2.296152 -85.227074 0.000153
[Rope1_Seg02]
3 139.999863 -0.000179 0.000000 -0.114811 1.073617 -1.344733 139.999863
4 139.999863 -0.000179 0.000000 -1.025185 -0.173043 -1.282750 139.999863
[Rope1_Seg03]
3 139.999924 0.000060 -0.000060 -1.914860 -0.127951 -2.721915 139.999924
4 139.999924 0.000060 -0.000060 -2.674560 -1.444572 -2.389033 139.999924
[Rope1_Seg04]
3 139.999924 -0.000060 -0.000119 1.443605 1.874371 0.153889 139.999924
4 139.999924 -0.000060 -0.000119 0.619110 0.927049 -0.097197 139.999924
[Rope1_Seg05]
3 139.999832 0.000119 -0.000060 5.211411 3.525362 4.006514 139.999832
4 139.999832 0.000119 -0.000060 5.039377 3.731060 3.390795 139.999832
[Rope1_Seg06]
3 139.999954 0.000119 -0.000060 1.993765 1.531093 1.373885 139.999954
4 139.999954 0.000119 -0.000060 1.902282 1.575256 1.160657 139.999954
[Rope1_Seg07]
3 139.999985 0.000060 0.000000 1.035267 0.851427 0.652339 139.999985
4 139.999985 0.000060 0.000000 0.960207 0.832940 0.547754 139.999985
[Rope1_Seg09]
3 121.602913 0.000119 -0.000089 -89.793175 -1.359789 0.847147 121.602913
4 121.602913 0.000119 -0.000089 -89.793175 -1.359789 0.847147 121.602913
[L_mid_hand01]
3 103.859421 1.038730 8.195221 124.165955 -63.799015 -31.873352 104.187431
4 103.859421 1.038730 8.195221 119.391953 -59.659550 -26.459229 104.187431
[L_mid_hand02]
3 105.572853 -4.139662 -10.864139 -164.626358 42.318848 -67.191460 106.211075
4 105.572853 -4.139662 -10.864139 -160.502609 40.861904 -60.979630 106.211075
[L_mid_hand03]
3 104.641464 17.579376 -3.913581 -7.501869 17.251593 69.949562 106.179977
4 104.641464 17.579376 -3.913581 -8.971709 16.553080 64.913109 106.179977
[null_rope02_connect]
3 328.732849 0.000179 -0.000119 -142.053741 69.025719 -36.870262 328.732849
4 328.732849 0.000179 -0.000119 -143.139114 69.534492 -37.884567 328.732849
[Rope2_Seg01]
3 0.000078 0.000093 0.000000 -37.759739 3.161063 -88.049843 0.000122
4 0.000079 0.000083 0.000000 -38.219166 3.031067 -88.876198 0.000115
[Rope2_Seg02]
3 139.999741 -0.000060 -0.000119 3.593859 1.562916 3.891517 139.999756
4 139.999741 -0.000060 -0.000119 3.780795 1.841190 4.126434 139.999756
[Rope2_Seg03]
3 140.000107 0.000030 0.000000 7.101458 2.991382 7.598074 140.000107
4 140.000107 0.000030 0.000000 7.139145 3.633417 7.705084 140.000107
[Rope2_Seg04]
3 139.999802 0.000000 -0.000060 -4.212115 -2.053783 -4.705719 139.999802
4 139.999802 0.000000 -0.000060 -4.152978 -2.569186 -4.643839 139.999802
[Rope2_Seg05]
3 139.999985 -0.000060 0.000119 -8.684482 -4.036788 -10.387545 139.999985
4 139.999985 -0.000060 0.000119 -8.612001 -4.919621 -10.106877 139.999985
[Rope2_Seg06]
3 139.999893 -0.000030 -0.000119 -3.301061 -0.903242 -4.253235 139.999893
4 139.999893 -0.000030 -0.000119 -3.348707 -1.253177 -4.138823 139.999893
[Rope2_Seg07]
3 139.999893 0.000060 -0.000060 -1.919034 -0.387790 -2.574087 139.999893
4 139.999893 0.000060 -0.000060 -1.983783 -0.601071 -2.520743 139.999893
[Rope2_Seg09]
3 121.338966 0.000089 -0.000060 33.793236 -1.359788 -0.847141 121.338966
4 121.338966 0.000089 -0.000060 33.793236 -1.359788 -0.847141 121.338966
[R_mid_hand01]
3 104.680779 11.144459 -10.335981 -18.237753 44.607113 67.592667 105.778534
4 104.680779 11.144459 -10.335981 -20.399712 43.830379 64.493820 105.778534
[R_mid_hand02]
3 104.070427 2.443552 8.231699 52.237907 -66.108360 35.844143 104.424065
4 104.070427 2.443552 8.231699 55.242668 -64.206009 32.532043 104.424065
[R_mid_hand03]
3 106.028137 -11.221827 -5.996406 -176.510086 15.433296 -74.380737 106.788818
4 106.028137 -11.221827 -5.996406 -175.861618 15.275426 -71.940247 106.788818
[spine02]
3 129.756927 0.001550 0.000119 0.412485 -4.039276 -13.704086 129.756927
4 129.756927 0.001550 0.000119 0.438851 -4.036261 -14.034025 129.756927
[spine03]
3 78.614021 0.081635 -4.899003 1.929331 3.818316 16.954147 78.766556
4 78.614021 0.081635 -4.899003 1.943640 3.811042 17.174652 78.766556
[pelvis]
3 169.435242 0.051022 0.000000 -0.062031 -0.179692 15.085137 169.435257
4 169.435242 0.051022 0.000000 -0.062688 -0.179464 15.504308 169.435257
[null_rope03_connect]
3 -1.257226 -2.466202 137.391083 0.000000 -89.434212 60.947773 137.418976
4 -1.257226 -2.466202 137.391083 0.000000 -89.452843 60.546371 137.418976
[null_rope04_connect]
3 -1.259640 -2.480268 -137.844437 0.000000 -89.434212 60.947773 137.872513
4 -1.259640 -2.480268 -137.844437 0.000000 -89.452843 60.546371 137.872513
[Rope3_Seg01]
3 0.000010 0.000038 -0.000114 16.931957 27.960340 -81.935265 0.000121
4 0.000010 0.000038 -0.000114 17.400877 26.992493 -80.713036 0.000121
[Rope3_Seg02]
3 139.999924 -0.000119 0.000060 0.026396 -2.164526 -1.047529 139.999924
4 139.999924 -0.000119 0.000060 0.055914 -2.129430 -1.854417 139.999924
[Rope3_Seg03]
3 139.999924 -0.000119 0.000119 0.070500 -2.386689 -1.167266 139.999924
4 139.999924 -0.000119 0.000119 0.096597 -2.277091 -2.038394 139.999924
[Rope3_Seg04]
3 139.999924 0.000119 0.000000 -0.087550 0.786065 -2.907384 139.999924
4 139.999924 0.000119 0.000000 -0.200151 0.963812 -4.571219 139.999924
[Rope3_Seg05]
3 139.999924 -0.000238 0.000060 0.438514 -5.022609 -0.591831 139.999924
4 139.999924 -0.000238 0.000060 0.548433 -4.832145 -0.991719 139.999924
[Rope3_Seg06]
3 139.999893 -0.000119 -0.000060 1.828746 -14.270272 4.330141 139.999893
4 139.999893 -0.000119 -0.000060 2.040466 -13.726480 5.892023 139.999893
[Rope3_Seg07]
3 139.999771 0.000060 -0.000119 2.181521 -9.782283 3.310621 139.999771
4 139.999771 0.000060 -0.000119 2.170723 -9.659933 4.545480 139.999771
[Rope3_Seg08]
3 139.999985 -0.000060 0.000000 1.713127 -5.301372 1.858487 139.999985
4 139.999985 -0.000060 0.000000 1.656323 -5.260196 2.465856 139.999985
[Rope3_Seg09]
3 90.185997 -0.000179 -0.000060 89.793228 -1.359877 -0.847183 90.185997
4 90.185997 -0.000179 -0.000060 89.793228 -1.359877 -0.847183 90.185997
[R_rear_hand01]
3 103.366196 -6.073594 -10.757982 -176.465668 24.425859 -70.909309 104.101845
4 103.366196 -6.073594 -10.757982 -175.114853 24.208797 -67.632149 104.101845
[R_rear_hand02]
3 100.509819 12.039542 -7.992327 -14.843726 36.213379 68.859123 101.543350
4 100.509819 12.039542 -7.992327 -16.923939 35.395069 65.303368 101.543350
[R_rear_hand03]
3 101.539970 5.215704 5.435467 73.787918 -69.202950 19.069901 101.819031
4 101.539970 5.215704 5.435467 75.730560 -66.314209 16.974052 101.819031
[Rope4_Seg01]
3 0.000010 0.000038 -0.000114 -93.597420 27.460249 -85.846313 0.000121
4 0.000010 0.000038 -0.000114 -93.452454 27.888838 -85.829361 0.000121
[Rope4_Seg02]
3 139.999985 0.000060 0.000119 -0.036890 -0.132159 -0.883582 139.999985
4 139.999985 0.000060 0.000119 -0.086393 -0.083438 -1.343536 139.999985
[Rope4_Seg03]
3 139.999924 0.000000 -0.000238 -0.016621 -0.211129 -0.814355 139.999924
4 139.999924 0.000000 -0.000238 -0.080802 -0.142696 -1.303929 139.999924
[Rope4_Seg04]
3 139.999985 0.000000 0.000119 0.416265 -1.890911 2.156490 139.999985
4 139.999985 0.000000 0.000119 0.292796 -1.603713 1.110471 139.999985
[Rope4_Seg05]
3 139.999802 -0.000060 -0.000119 -0.726374 1.709549 -4.664961 139.999802
4 139.999802 -0.000060 -0.000119 -0.675306 1.416521 -4.310848 139.999802
[Rope4_Seg06]
3 139.999924 0.000000 0.000060 -1.677647 4.324708 -8.702216 139.999924
4 139.999924 0.000000 0.000060 -1.527100 3.894719 -7.751723 139.999924
[Rope4_Seg07]
3 139.999802 0.000000 0.000000 -0.627426 2.166232 -4.210841 139.999802
4 139.999802 0.000000 0.000000 -0.637169 2.097250 -4.072005 139.999802
[Rope4_Seg08]
3 139.999924 0.000000 0.000119 -1.837043 1.167506 -2.267896 139.999924
4 139.999924 0.000000 0.000119 -1.845798 1.133422 -2.222904 139.999924
[Rope4_Seg09]
3 90.185791 0.000060 0.000060 -135.617828 2.228885 0.850567 90.185791
4 90.185791 0.000060 0.000060 -135.617828 2.228885 0.850567 90.185791
[L_rear_hand01]
3 101.696655 -8.392275 -7.654577 -18.919888 -34.466518 118.185951 102.329041
4 101.696655 -8.392275 -7.654577 -23.837845 -31.499460 127.199913 102.329041
[L_rear_hand02]
3 102.726799 -1.568258 5.773216 77.226944 63.386848 164.679077 102.900848
4 102.726799 -1.568258 5.773216 79.944244 55.427822 167.828537 102.900848
[L_rear_hand03]
3 104.552910 9.721220 -10.420293 -173.780411 -23.916803 -115.646591 105.519653
4 104.552910 9.721220 -10.420293 -170.300720 -22.790039 -124.406273 105.519653
